<svg width="300" height="300" viewBox="0 0 300 300" fill="none" xmlns="http://www.w3.org/2000/svg">
<path d="M75 28.125C75 25.6386 74.0123 23.254 72.2541 21.4959C70.496 19.7377 68.1114 18.75 65.625 18.75C63.1386 18.75 60.754 19.7377 58.9959 21.4959C57.2377 23.254 56.25 25.6386 56.25 28.125V84.375C56.2478 95.1811 59.9792 105.656 66.8128 114.027C73.6463 122.398 83.1622 128.151 93.75 130.312V271.875C93.75 274.361 94.7377 276.746 96.4959 278.504C98.254 280.262 100.639 281.25 103.125 281.25C105.611 281.25 107.996 280.262 109.754 278.504C111.512 276.746 112.5 274.361 112.5 271.875V130.312C123.088 128.151 132.604 122.398 139.437 114.027C146.271 105.656 150.002 95.1811 150 84.375V28.125C150 25.6386 149.012 23.254 147.254 21.4959C145.496 19.7377 143.111 18.75 140.625 18.75C138.139 18.75 135.754 19.7377 133.996 21.4959C132.238 23.254 131.25 25.6386 131.25 28.125V84.375C131.253 90.1936 129.451 95.8699 126.093 100.622C122.735 105.373 117.986 108.967 112.5 110.906V28.125C112.5 25.6386 111.512 23.254 109.754 21.4959C107.996 19.7377 105.611 18.75 103.125 18.75C100.639 18.75 98.254 19.7377 96.4959 21.4959C94.7377 23.254 93.75 25.6386 93.75 28.125V110.906C88.2642 108.967 83.5149 105.373 80.1568 100.622C76.7986 95.8699 74.997 90.1936 75 84.375V28.125ZM206.25 271.875V150H178.125C175.639 150 173.254 149.012 171.496 147.254C169.738 145.496 168.75 143.111 168.75 140.625V65.625C168.75 53.1937 174.862 41.5688 183.206 33.2063C191.569 24.8625 203.194 18.75 215.625 18.75C218.111 18.75 220.496 19.7377 222.254 21.4959C224.012 23.254 225 25.6386 225 28.125V271.875C225 274.361 224.012 276.746 222.254 278.504C220.496 280.262 218.111 281.25 215.625 281.25C213.139 281.25 210.754 280.262 208.996 278.504C207.238 276.746 206.25 274.361 206.25 271.875Z" fill="#939393"/>
</svg>
